# xmcd CD database file
#
# Track frame offsets:
#	150
#	48213
#	50952
#	93750
#	119152
#	147810
#	173951
#	203207
#	221122
#	267796
#
# Disc length: 4008 seconds
#
# Revision: 0
# Processed by: cddbd v1.5PL3 Copyright (c) Steve Scherf et al.
# Submitted via: CDex 1.50
#
DISCID=9a0fa60a
DTITLE=Various Artist - THE RVG ALBUM - Jazz From RUDY VAN GELDER
DYEAR=1999
DGENRE=Jazz
TTITLE0=Blue Train - John Coltrane
TTITLE1=Warm Up Dialog Between Lee And Rudy
TTITLE2=Moanin' - Art Blakey And The Jazz Messengers
TTITLE3=Remember - Hank Mobley
TTITLE4=Hush - Donald Byrd
TTITLE5=Just One More Chance - Ike Quebec
TTITLE6=Cheese Cake - Dexter Gordon
TTITLE7=Midnight Blue - Kenny Burrell
TTITLE8=The Sidewinder - Lee Morgan
TTITLE9=Song For My Father - New Directions
EXTD=YEAR: 1999
EXTT0=
EXTT1=
EXTT2=
EXTT3=
EXTT4=
EXTT5=
EXTT6=
EXTT7=
EXTT8=
EXTT9=
PLAYORDER=
